<svg width="483" height="282" viewBox="0 0 483 282" fill="none" xmlns="http://www.w3.org/2000/svg">
<path d="M53.6 241.868C52.7756 241.851 52.0107 241.399 52.0348 240.941L62.9766 33.6232C62.9944 33.2863 63.4442 33.0592 64.0539 33.0792L131.939 35.3153C132.754 35.3422 133.497 35.7897 133.474 36.2403L127.808 148.802L125.552 193.578C125.53 194.028 126.272 194.476 127.087 194.503L197.246 196.814L352.325 201.912C352.83 201.928 353.342 202.112 353.632 202.382L402.38 247.693C402.909 248.185 402.479 248.711 401.561 248.693L53.6 241.868ZM0.993771 271.654C0.969616 272.111 1.73456 272.564 2.55897 272.581L481.868 281.972C482.786 281.99 483.216 281.464 482.687 280.972L364.726 171.299C364.435 171.029 363.924 170.845 363.419 170.829L177.966 164.728C177.151 164.701 176.408 164.253 176.431 163.803L184.352 6.46528C184.375 6.01466 183.632 5.56706 182.817 5.54024L16.3751 0.0641069C15.7655 0.0440494 15.3158 0.271201 15.298 0.608111L0.993771 271.654Z" fill="url(#paint0_linear)"/>
<defs>
<linearGradient id="paint0_linear" x1="-58.2503" y1="218.154" x2="158.736" y2="-17.9869" gradientUnits="userSpaceOnUse">
<stop stop-color="#307FE2"/>
<stop offset="1" stop-color="#307FE2" stop-opacity="0"/>
</linearGradient>
</defs>
</svg>