<svg width="402" height="637" viewBox="0 0 402 637" fill="none" xmlns="http://www.w3.org/2000/svg">
<path d="M70.3775 238.103C69.806 237.509 69.5854 236.648 69.9261 236.341L255.481 69.3906C255.732 69.1649 256.211 69.3224 256.628 69.7676L312.734 129.696C313.291 130.292 313.5 131.133 313.165 131.436L212.643 222.324L172.575 258.547C172.241 258.85 172.449 259.692 173.007 260.287L230.837 322.056L358.307 458.192C358.652 458.561 358.884 459.053 358.898 459.449L361.833 539.755C361.859 540.478 361.183 540.545 360.547 539.884L70.3775 238.103ZM0.504821 219.08C0.164113 219.386 0.384754 220.247 0.956274 220.842L400.481 636.335C401.117 636.997 401.793 636.929 401.767 636.207L394.712 442.475C394.698 442.079 394.467 441.587 394.121 441.218L241.494 278.207C240.936 277.612 240.728 276.77 241.062 276.467L381.652 149.356C381.987 149.053 381.778 148.211 381.221 147.616L244.176 1.24655C243.759 0.801304 243.281 0.643931 243.03 0.869611L0.504821 219.08Z" fill="url(#paint0_linear)"/>
<defs>
<linearGradient id="paint0_linear" x1="-4.23897" y1="123.223" x2="380.533" y2="106.958" gradientUnits="userSpaceOnUse">
<stop stop-color="#2E7AD9"/>
<stop offset="1" stop-color="#296BBF" stop-opacity="0"/>
</linearGradient>
</defs>
</svg>
