<svg width="88" height="82" viewBox="0 0 88 82" fill="none" xmlns="http://www.w3.org/2000/svg">
<path d="M71.8109 40.025C72.4783 40.3795 72.5264 41.3178 71.8988 41.7387L26.072 72.4694C25.7603 72.6784 25.3579 72.6953 25.0298 72.5132L16.2025 67.6136C15.5493 67.251 15.5099 66.3264 16.1297 65.9095L40.6568 49.4127L49.7176 43.3189C50.3375 42.902 50.298 41.9773 49.6449 41.6148L40.0953 36.3142L16.8714 23.4264C16.4923 23.216 16.2919 22.7852 16.3753 22.3597L18.2068 13.0134C18.3359 12.3547 19.0644 12.0077 19.6572 12.3226L71.8109 40.025ZM86.8392 40.9726C87.4669 40.5516 87.4188 39.6134 86.7513 39.2589L14.1107 0.677304C13.5179 0.362486 12.7895 0.709375 12.6603 1.36797L7.75599 26.3698C7.6725 26.7953 7.87283 27.2262 8.25202 27.4366L34.9367 42.2462C35.5899 42.6088 35.6295 43.5335 35.0096 43.9504L1.4218 66.5408C0.801905 66.9578 0.841427 67.8825 1.49463 68.245L25.4047 81.5148C25.7328 81.6969 26.1352 81.68 26.4469 81.471L86.8392 40.9726Z" fill="url(#paint0_linear)" fill-opacity="0.8"/>
<defs>
<linearGradient id="paint0_linear" x1="85.7416" y1="53.3293" x2="5.51355" y2="38.3257" gradientUnits="userSpaceOnUse">
<stop stop-color="#307FE2"/>
<stop offset="1" stop-color="#307FE2" stop-opacity="0"/>
</linearGradient>
</defs>
</svg>
