<svg width="345" height="603" viewBox="0 0 345 603" fill="none" xmlns="http://www.w3.org/2000/svg">
<path d="M268.953 510.285C270.604 517.66 263.793 524.13 256.513 522.103L-127.734 415.124C-131.35 414.117 -134.097 411.171 -134.849 407.493L-148.496 340.76C-149.993 333.441 -143.229 327.125 -136.03 329.119L68.8418 385.853L141.883 406.082C149.082 408.076 155.846 401.76 154.349 394.441L139.162 320.174L100.483 131.116C99.6139 126.868 101.581 122.544 105.355 120.409L161.382 88.7026C167.224 85.3966 174.6 88.6712 176.066 95.2217L268.953 510.285ZM332.123 601.696C339.403 603.723 346.214 597.253 344.564 589.879L214.483 8.70331C213.017 2.15366 205.643 -1.12093 199.801 2.1835L41.8485 91.5292C38.0739 93.6643 36.1057 97.9888 36.9748 102.237L80.5982 315.499C82.0952 322.818 75.3313 329.134 68.1322 327.141L-209.779 250.178C-216.978 248.184 -223.742 254.501 -222.245 261.819L-183.227 452.569C-182.475 456.246 -179.728 459.192 -176.112 460.198L332.123 601.696Z" fill="#CBCBCB" fill-opacity="0.06"/>
</svg>
