<svg width="37" height="24" viewBox="0 0 37 24" fill="none" xmlns="http://www.w3.org/2000/svg">
<path d="M14.8485 10.7538C16.8837 9.74356 17.9461 8.2149 17.9461 5.8355C17.9461 1.14317 14.5796 0 10.6947 0H0V23.5547H10.9955C15.1173 23.5547 18.9894 21.501 18.9894 16.7156C18.9894 13.758 17.6389 11.5713 14.8485 10.7538ZM4.98575 4.02105H9.6643C11.4628 4.02105 13.082 4.54611 13.082 6.71282C13.082 8.71338 11.8212 9.51759 10.0419 9.51759H4.98575V4.02105ZM10.3171 19.5536H4.98575V13.0667H10.4195C12.6148 13.0667 14.0036 14.0172 14.0036 16.4298C14.0036 18.8092 12.346 19.5536 10.3171 19.5536ZM33.2618 3.5558H24.0647V1.23622H33.2618V3.5558ZM36.8651 15.2733C36.8651 10.2287 34.0234 6.0216 28.8713 6.0216C23.8663 6.0216 20.4678 9.92966 20.4678 15.0474C20.4678 20.3578 23.6871 24 28.8713 24C32.7946 24 35.3355 22.1656 36.5579 18.2642H32.577C32.1482 19.7197 30.3817 20.4907 29.0121 20.4907C26.3688 20.4907 24.98 18.8823 24.98 16.1507H36.8267C36.8459 15.8715 36.8651 15.5724 36.8651 15.2733ZM24.9864 13.1997C25.1336 10.9598 26.5672 9.55746 28.7305 9.55746C30.9962 9.55746 32.1354 10.9399 32.3274 13.1997H24.9864Z" fill="#56B6FF"/>
</svg>
