<svg width="25" height="25" viewBox="0 0 25 25" fill="none" xmlns="http://www.w3.org/2000/svg">
<path d="M12.5 0C5.60746 0 0 5.60746 0 12.5C0 19.3925 5.60746 25 12.5 25C19.3925 25 25 19.3925 25 12.5C25 5.60746 19.3925 0 12.5 0ZM20.7646 5.76442C22.2517 7.58125 23.1522 9.89531 23.1757 12.4154C22.8236 12.3409 19.2937 11.625 15.7411 12.0717C15.4512 11.364 15.1775 10.7414 14.8027 9.97424C18.7504 8.3625 20.5395 6.0689 20.7646 5.76442ZM19.5777 4.52974C19.3856 4.80328 17.7784 6.96351 13.9819 8.38654C12.2323 5.17203 10.2931 2.5313 9.99798 2.13614C13.3839 1.31996 16.9519 2.20015 19.5777 4.52974ZM7.96074 2.85383C8.24224 3.23987 10.1502 5.88387 11.9193 9.02868C6.92495 10.3549 2.52611 10.3358 2.04859 10.3295C2.74093 7.01638 4.97369 4.26275 7.96074 2.85383ZM1.82308 12.5163C1.82308 12.4071 1.82525 12.2984 1.82853 12.19C2.29567 12.1996 7.46966 12.2663 12.8016 10.6706C13.1073 11.2688 13.3992 11.876 13.6672 12.4825C9.8064 13.57 6.29859 16.6925 4.56789 19.6552C2.8626 17.7624 1.82308 15.2586 1.82308 12.5163ZM5.94642 20.9393C7.06169 18.6594 10.0885 15.7164 14.3929 14.248C15.8919 18.1433 16.5118 21.4079 16.6706 22.3447C13.2376 23.807 9.10938 23.4058 5.94642 20.9393ZM18.4656 21.3672C18.3561 20.7177 17.7879 17.5921 16.3914 13.7546C19.7371 13.2191 22.6767 14.0958 23.0419 14.211C22.566 17.1819 20.8608 19.7475 18.4656 21.3672Z" fill="#56B6FF"/>
</svg>
