<svg width="27" height="27" viewBox="0 0 27 27" fill="none" xmlns="http://www.w3.org/2000/svg">
<path d="M19.75 1H7.25C3.79822 1 1 3.79822 1 7.25V19.75C1 23.2018 3.79822 26 7.25 26H19.75C23.2018 26 26 23.2018 26 19.75V7.25C26 3.79822 23.2018 1 19.75 1Z" stroke="#56B6FF" stroke-width="2" stroke-linecap="round" stroke-linejoin="round"/>
<path d="M18.4999 12.7126C18.6542 13.7529 18.4765 14.8154 17.9921 15.7489C17.5078 16.6824 16.7414 17.4394 15.802 17.9122C14.8626 18.3851 13.798 18.5496 12.7597 18.3825C11.7213 18.2155 10.7621 17.7252 10.0185 16.9816C9.27484 16.2379 8.7846 15.2787 8.61752 14.2404C8.45044 13.2021 8.61502 12.1375 9.08785 11.1981C9.56067 10.2587 10.3177 9.49231 11.2512 9.00793C12.1847 8.52356 13.2471 8.34587 14.2874 8.50013C15.3486 8.65749 16.331 9.15196 17.0896 9.91052C17.8481 10.6691 18.3426 11.6515 18.4999 12.7126Z" stroke="#56B6FF" stroke-width="2" stroke-linecap="round" stroke-linejoin="round"/>
<path d="M20.375 6.625H20.3875" stroke="#56B6FF" stroke-width="2" stroke-linecap="round" stroke-linejoin="round"/>
</svg>
