<svg width="22" height="22" viewBox="0 0 22 22" fill="none" xmlns="http://www.w3.org/2000/svg">
<path d="M16.5 5.49658H16.51M6 1H16C18.7614 1 21 3.2371 21 5.9967V15.9901C21 18.7497 18.7614 20.9868 16 20.9868H6C3.23858 20.9868 1 18.7497 1 15.9901V5.9967C1 3.2371 3.23858 1 6 1ZM15 10.3639C15.1234 11.1955 14.9813 12.0449 14.5938 12.7911C14.2063 13.5374 13.5932 14.1425 12.8416 14.5205C12.0901 14.8985 11.2385 15.0301 10.4078 14.8965C9.57713 14.7629 8.80977 14.371 8.21485 13.7765C7.61993 13.1821 7.22774 12.4153 7.09408 11.5852C6.96042 10.7552 7.09208 9.90412 7.47034 9.15315C7.8486 8.40219 8.4542 7.78952 9.20099 7.40231C9.94779 7.01509 10.7978 6.87304 11.63 6.99636C12.4789 7.12216 13.2649 7.51744 13.8717 8.12384C14.4785 8.73024 14.8741 9.51559 15 10.3639Z" stroke="#224586" stroke-width="2" stroke-linecap="round" stroke-linejoin="round"/>
</svg>