<svg width="22" height="22" viewBox="0 0 22 22" fill="none" xmlns="http://www.w3.org/2000/svg">
<path d="M16 1H6C3.23858 1 1 3.2371 1 5.9967V15.9901C1 18.7497 3.23858 20.9868 6 20.9868H16C18.7614 20.9868 21 18.7497 21 15.9901V5.9967C21 3.2371 18.7614 1 16 1Z" stroke="#224586" stroke-width="2" stroke-linecap="round" stroke-linejoin="round"/>
<path d="M14.9999 10.3639C15.1234 11.1955 14.9812 12.0449 14.5937 12.7911C14.2062 13.5374 13.5931 14.1425 12.8416 14.5205C12.0901 14.8985 11.2384 15.0301 10.4077 14.8965C9.57707 14.7629 8.80971 14.371 8.21479 13.7765C7.61987 13.1821 7.22768 12.4153 7.09402 11.5852C6.96035 10.7552 7.09202 9.90412 7.47028 9.15315C7.84854 8.40219 8.45414 7.78952 9.20093 7.40231C9.94773 7.01509 10.7977 6.87304 11.6299 6.99636C12.4789 7.12216 13.2648 7.51744 13.8716 8.12384C14.4785 8.73024 14.8741 9.51559 14.9999 10.3639Z" stroke="#224586" stroke-width="2" stroke-linecap="round" stroke-linejoin="round"/>
<path d="M16.5 5.49658H16.51" stroke="#224586" stroke-width="2" stroke-linecap="round" stroke-linejoin="round"/>
</svg>
