<svg width="30" height="29" viewBox="0 0 30 29" fill="none" xmlns="http://www.w3.org/2000/svg">
<path d="M23.2397 11.8431C23.9108 12.1907 23.9686 13.1284 23.3453 13.5558L10.0345 22.6828C9.72504 22.895 9.32277 22.9161 8.99279 22.7374L7.48763 21.9222C6.83076 21.5664 6.7817 20.6422 7.39722 20.2189L14.2911 15.4778L16.2613 14.123C16.8768 13.6997 16.8278 12.7755 16.1709 12.4197L14.0677 11.2806L7.01438 7.46135C6.63308 7.25489 6.42829 6.82621 6.50727 6.39986L6.8065 4.78445C6.92876 4.12443 7.65368 3.7699 8.24971 4.07863L23.2397 11.8431ZM28.1323 13.2607C28.7556 12.8333 28.6978 11.8956 28.0267 11.548L6.43281 0.363677C5.83685 0.0550074 5.11203 0.409412 4.98966 1.06931L3.7575 7.71392C3.67843 8.14032 3.88321 8.56909 4.26455 8.7756L11.4578 12.671C12.1147 13.0267 12.1638 13.9509 11.5482 14.3743L2.68435 20.47C2.0688 20.8934 2.11788 21.8176 2.7748 22.1733L9.14284 25.6219C9.47281 25.8006 9.87506 25.7795 10.1845 25.5673L28.1323 13.2607Z" fill="#224586"/>
</svg>
