<svg width="787" height="796" viewBox="0 0 787 796" fill="none" xmlns="http://www.w3.org/2000/svg">
<path d="M552.953 515.285C554.604 522.66 547.793 529.13 540.513 527.103L156.266 420.124C152.65 419.117 149.903 416.171 149.151 412.494L135.504 345.76C134.007 338.441 140.771 332.126 147.97 334.119L352.842 390.853L425.883 411.082C433.082 413.076 439.846 406.76 438.349 399.441L423.162 325.174L384.483 136.116C383.614 131.868 385.581 127.544 389.355 125.409L445.382 93.7027C451.224 90.3967 458.6 93.6713 460.066 100.222L552.953 515.285ZM616.123 606.696C623.403 608.723 630.214 602.253 628.564 594.879L498.483 13.7034C497.017 7.15378 489.643 3.87919 483.801 7.18363L325.848 96.5294C322.074 98.6644 320.106 102.989 320.975 107.237L364.598 320.499C366.095 327.818 359.331 334.134 352.132 332.141L74.2209 255.178C67.0218 253.184 60.2578 259.501 61.7548 266.819L100.773 457.569C101.525 461.246 104.272 464.192 107.888 465.198L616.123 606.696Z" fill="#CBCBCB" fill-opacity="0.06"/>
</svg>
