<svg width="88" height="82" viewBox="0 0 88 82" fill="none" xmlns="http://www.w3.org/2000/svg">
<path d="M71.811 40.025C72.4785 40.3795 72.5266 41.3177 71.8989 41.7386L26.0721 72.4694C25.7605 72.6784 25.358 72.6953 25.0299 72.5132L16.2026 67.6135C15.5495 67.251 15.51 66.3263 16.1298 65.9094L40.657 49.4127L49.7177 43.3189C50.3376 42.902 50.2982 41.9773 49.645 41.6147L40.0955 36.3142L16.8715 23.4263C16.4924 23.2159 16.2921 22.7852 16.3754 22.3597L18.2069 13.0134C18.336 12.3547 19.0645 12.0077 19.6573 12.3226L71.811 40.025ZM86.8393 40.9725C87.467 40.5516 87.4189 39.6133 86.7515 39.2588L14.1108 0.677273C13.5181 0.362456 12.7896 0.709345 12.6604 1.36794L7.75611 26.3698C7.67263 26.7953 7.87295 27.2262 8.25215 27.4366L34.9369 42.2462C35.5901 42.6087 35.6296 43.5334 35.0097 43.9504L1.42192 66.5408C0.802028 66.9577 0.841549 67.8824 1.49475 68.245L25.4048 81.5148C25.7329 81.6969 26.1354 81.6799 26.447 81.4709L86.8393 40.9725Z" fill="url(#paint0_linear)" fill-opacity="0.8"/>
<defs>
<linearGradient id="paint0_linear" x1="85.7417" y1="53.3293" x2="5.51367" y2="38.3256" gradientUnits="userSpaceOnUse">
<stop stop-color="#307FE2"/>
<stop offset="1" stop-color="#307FE2" stop-opacity="0"/>
</linearGradient>
</defs>
</svg>
