<svg width="62" height="82" viewBox="0 0 62 82" fill="none" xmlns="http://www.w3.org/2000/svg">
<path d="M45.9019 39.7972C46.5693 40.1517 46.6174 41.09 45.9898 41.5109L0.163031 72.2416C-0.14865 72.4506 -0.551115 72.4676 -0.879231 72.2854L-9.7065 67.3858C-10.3597 67.0232 -10.3991 66.0986 -9.77928 65.6817L14.7478 49.1849L23.8086 43.0911C24.4285 42.6742 24.389 41.7495 23.7359 41.387L14.1863 36.0865L-9.03757 23.1986C-9.41671 22.9882 -9.61706 22.5574 -9.53367 22.1319L-7.70221 12.7857C-7.57313 12.1269 -6.84458 11.7799 -6.25177 12.0948L45.9019 39.7972ZM60.9302 40.7448C61.5579 40.3239 61.5098 39.3856 60.8423 39.0311L-11.7983 0.44952C-12.3911 0.134703 -13.1195 0.481592 -13.2487 1.14019L-18.153 26.142C-18.2365 26.5676 -18.0362 26.9984 -17.657 27.2089L9.02774 42.0185C9.68094 42.381 9.72046 43.3057 9.10057 43.7226L-24.4872 66.313C-25.1071 66.73 -25.0676 67.6547 -24.4144 68.0172L-0.504316 81.287C-0.176204 81.4691 0.226237 81.4522 0.537904 81.2432L60.9302 40.7448Z" fill="url(#paint0_linear)" fill-opacity="0.8"/>
<defs>
<linearGradient id="paint0_linear" x1="59.8326" y1="53.1015" x2="-20.3954" y2="38.0979" gradientUnits="userSpaceOnUse">
<stop stop-color="#307FE2"/>
<stop offset="1" stop-color="#307FE2" stop-opacity="0"/>
</linearGradient>
</defs>
</svg>
