<svg width="52" height="47" viewBox="0 0 52 47" fill="none" xmlns="http://www.w3.org/2000/svg">
<rect x="0.5" y="0.5" width="51" height="46" fill="white" stroke="#2648A1"/>
<path d="M33.2397 20.8431C33.9108 21.1907 33.9686 22.1284 33.3453 22.5558L20.0345 31.6828C19.725 31.895 19.3228 31.9161 18.9928 31.7374L17.4876 30.9222C16.8308 30.5664 16.7817 29.6422 17.3972 29.2189L24.2911 24.4778L26.2613 23.123C26.8768 22.6997 26.8278 21.7755 26.1709 21.4197L24.0677 20.2806L17.0144 16.4614C16.6331 16.2549 16.4283 15.8262 16.5073 15.3999L16.8065 13.7844C16.9288 13.1244 17.6537 12.7699 18.2497 13.0786L33.2397 20.8431ZM38.1323 22.2607C38.7556 21.8333 38.6978 20.8956 38.0267 20.548L16.4328 9.36368C15.8369 9.05501 15.112 9.40941 14.9897 10.0693L13.7575 16.7139C13.6784 17.1403 13.8832 17.5691 14.2645 17.7756L21.4578 21.671C22.1147 22.0267 22.1638 22.9509 21.5482 23.3743L12.6843 29.47C12.0688 29.8934 12.1179 30.8176 12.7748 31.1733L19.1428 34.6219C19.4728 34.8006 19.8751 34.7795 20.1845 34.5673L38.1323 22.2607Z" fill="#224586"/>
</svg>