<svg width="470" height="500" viewBox="0 0 470 500" fill="none" xmlns="http://www.w3.org/2000/svg">
<path d="M106.877 422.517C99.3271 422.203 94.8405 413.949 98.6825 407.442L301.467 63.9761C303.375 60.7442 306.932 58.8529 310.679 59.0783L378.67 63.1686C386.127 63.6172 390.477 71.7852 386.688 78.2227L278.863 261.43L240.418 326.747C236.629 333.184 240.979 341.352 248.436 341.801L324.104 346.353L516.73 357.924C521.058 358.184 524.726 361.203 525.812 365.401L541.937 427.725C543.618 434.224 538.546 440.5 531.839 440.221L106.877 422.517ZM2.23155 459.876C-1.61048 466.383 2.8763 474.637 10.4268 474.951L605.466 499.722C612.172 500.001 617.244 493.726 615.564 487.228L570.144 311.533C569.058 307.334 565.391 304.314 561.062 304.054L343.776 290.994C336.32 290.546 331.969 282.378 335.758 275.94L482.027 27.418C485.816 20.9802 481.465 12.8119 474.009 12.3637L279.66 0.68231C275.914 0.457092 272.357 2.34845 270.449 5.58021L2.23155 459.876Z" fill="#CBCBCB" fill-opacity="0.06"/>
</svg>
