<svg width="28" height="27" viewBox="0 0 28 27" fill="none" xmlns="http://www.w3.org/2000/svg">
<path d="M5.31863 13.1296C4.68042 12.7248 4.70456 11.7856 5.36273 11.4142L19.4183 3.48204C19.7451 3.2976 20.1477 3.31167 20.4608 3.51847L21.8892 4.46174C22.5126 4.87341 22.4809 5.79837 21.8308 6.16641L14.55 10.2886L12.4692 11.4666C11.8191 11.8346 11.7874 12.7596 12.4108 13.1712L14.4067 14.4893L21.1003 18.9088C21.4622 19.1477 21.6288 19.5926 21.513 20.0104L21.0741 21.5936C20.8948 22.2405 20.1417 22.5305 19.5749 22.171L5.31863 13.1296ZM0.568209 11.291C-0.0899655 11.6624 -0.114096 12.6016 0.524137 13.0064L21.0611 26.0301C21.6278 26.3896 22.3808 26.0997 22.5602 25.453L24.3668 18.941C24.4827 18.5231 24.3161 18.0782 23.9542 17.8392L17.1279 13.3317C16.5044 12.9201 16.5361 11.9951 17.1862 11.627L26.5476 6.32698C27.1977 5.95892 27.2294 5.03392 26.606 4.62228L20.5627 0.631866C20.2496 0.425093 19.847 0.411038 19.5202 0.595471L0.568209 11.291Z" fill="#C3CDE6"/>
</svg>
