<svg width="568" height="702" viewBox="0 0 568 702" fill="none" xmlns="http://www.w3.org/2000/svg">
<path d="M204.877 474.517C197.327 474.203 192.84 465.949 196.682 459.442L399.467 115.976C401.375 112.744 404.932 110.853 408.679 111.078L476.67 115.169C484.127 115.617 488.477 123.785 484.688 130.223L376.863 313.43L338.418 378.747C334.629 385.184 338.979 393.352 346.436 393.801L422.104 398.353L614.73 409.924C619.058 410.184 622.726 413.203 623.812 417.401L639.937 479.725C641.618 486.224 636.546 492.5 629.839 492.221L204.877 474.517ZM100.232 511.876C96.3895 518.383 100.876 526.637 108.427 526.951L703.466 551.722C710.172 552.001 715.244 545.726 713.564 539.228L668.144 363.533C667.058 359.334 663.391 356.314 659.062 356.054L441.776 342.994C434.32 342.546 429.969 334.378 433.758 327.94L580.027 79.418C583.816 72.9802 579.465 64.8119 572.009 64.3637L377.66 52.6823C373.914 52.4571 370.357 54.3484 368.449 57.5802L100.232 511.876Z" fill="#CBCBCB" fill-opacity="0.06"/>
</svg>
