<svg width="503" height="796" viewBox="0 0 503 796" fill="none" xmlns="http://www.w3.org/2000/svg">
<path d="M268.953 515.285C270.604 522.66 263.793 529.13 256.513 527.103L-127.734 420.124C-131.35 419.117 -134.097 416.171 -134.849 412.493L-148.496 345.76C-149.993 338.441 -143.229 332.125 -136.03 334.119L68.8418 390.853L141.883 411.082C149.082 413.076 155.846 406.76 154.349 399.441L139.162 325.174L100.483 136.116C99.6139 131.868 101.581 127.544 105.355 125.409L161.382 93.7026C167.224 90.3966 174.6 93.6712 176.066 100.222L268.953 515.285ZM332.123 606.696C339.403 608.723 346.214 602.253 344.564 594.879L214.483 13.7033C213.017 7.15366 205.643 3.87907 199.801 7.1835L41.8485 96.5292C38.0739 98.6643 36.1057 102.989 36.9748 107.237L80.5982 320.499C82.0952 327.818 75.3313 334.134 68.1322 332.141L-209.779 255.178C-216.978 253.184 -223.742 259.501 -222.245 266.819L-183.227 457.569C-182.475 461.246 -179.728 464.192 -176.112 465.198L332.123 606.696Z" fill="#CBCBCB" fill-opacity="0.06"/>
</svg>

