<svg width="95" height="92" viewBox="0 0 95 92" fill="none" xmlns="http://www.w3.org/2000/svg">
<path d="M74.3564 39.9111C75.0239 40.2656 75.072 41.2039 74.4443 41.6248L28.6176 72.3555C28.3059 72.5645 27.9034 72.5815 27.5753 72.3993L18.748 67.4997C18.0949 67.1371 18.0554 66.2125 18.6752 65.7956L43.2024 49.2988L52.2632 43.205C52.883 42.7881 52.8436 41.8634 52.1904 41.5009L42.6409 36.2003L19.417 23.3125C19.0378 23.1021 18.8375 22.6713 18.9209 22.2458L20.7523 12.8996C20.8814 12.2408 21.6099 11.8938 22.2028 12.2087L74.3564 39.9111ZM89.3847 40.8587C90.0124 40.4377 89.9643 39.4995 89.2969 39.145L16.6562 0.563412C16.0635 0.248594 15.335 0.595483 15.2058 1.25408L10.3015 26.2559C10.218 26.6815 10.4184 27.1123 10.7975 27.3228L37.4823 42.1323C38.1355 42.4949 38.175 43.4196 37.5551 43.8365L3.96733 66.4269C3.34744 66.8439 3.38695 67.7686 4.04015 68.1311L27.9502 81.4009C28.2783 81.583 28.6808 81.5661 28.9924 81.3571L89.3847 40.8587Z" fill="url(#paint0_linear)" fill-opacity="0.8"/>
<defs>
<linearGradient id="paint0_linear" x1="88.2871" y1="53.2154" x2="8.05908" y2="38.2118" gradientUnits="userSpaceOnUse">
<stop stop-color="#307FE2"/>
<stop offset="1" stop-color="#307FE2" stop-opacity="0"/>
</linearGradient>
</defs>
</svg>
