<svg width="52" height="47" viewBox="0 0 52 47" fill="none" xmlns="http://www.w3.org/2000/svg">
<rect x="51.5" y="46.5" width="51" height="46" transform="rotate(-180 51.5 46.5)" fill="white" stroke="#C3CDE5"/>
<path d="M18.3186 25.1296C17.6804 24.7248 17.7046 23.7856 18.3627 23.4142L32.4183 15.482C32.7451 15.2976 33.1477 15.3117 33.4608 15.5185L34.8892 16.4617C35.5126 16.8734 35.4809 17.7984 34.8308 18.1664L27.55 22.2886L25.4692 23.4666C24.8191 23.8346 24.7874 24.7596 25.4108 25.1712L27.4067 26.4893L34.1003 30.9088C34.4622 31.1477 34.6288 31.5926 34.513 32.0104L34.0741 33.5936C33.8948 34.2405 33.1417 34.5305 32.5749 34.171L18.3186 25.1296ZM13.5682 23.291C12.91 23.6624 12.8859 24.6016 13.5241 25.0064L34.0611 38.0301C34.6278 38.3896 35.3808 38.0997 35.5602 37.453L37.3668 30.941C37.4827 30.5231 37.3161 30.0782 36.9542 29.8392L30.1279 25.3317C29.5044 24.9201 29.5361 23.9951 30.1862 23.627L39.5476 18.327C40.1977 17.9589 40.2294 17.0339 39.606 16.6223L33.5627 12.6319C33.2496 12.4251 32.847 12.411 32.5202 12.5955L13.5682 23.291Z" fill="#C3CDE6"/>
</svg>