<svg width="27" height="26" viewBox="0 0 27 26" fill="none" xmlns="http://www.w3.org/2000/svg">
<path d="M21.2398 11.8432C21.9109 12.1908 21.9687 13.1285 21.3454 13.5559L8.03465 22.6829C7.72514 22.8951 7.32287 22.9162 6.99289 22.7375L5.48774 21.9223C4.83086 21.5665 4.78181 20.6423 5.39733 20.219L12.2912 15.478L14.2614 14.1231C14.8769 13.6998 14.8279 12.7756 14.171 12.4198L12.0678 11.2807L5.01448 7.46148C4.63319 7.25501 4.42839 6.82633 4.50737 6.39998L4.80661 4.78457C4.92887 4.12455 5.65379 3.77003 6.24982 4.07876L21.2398 11.8432ZM26.1324 13.2608C26.7557 12.8334 26.6979 11.8957 26.0268 11.5481L4.43292 0.363799C3.83696 0.0551296 3.11214 0.409534 2.98977 1.06943L1.75761 7.71405C1.67854 8.14044 1.88331 8.56921 2.26466 8.77572L9.4579 12.6711C10.1148 13.0268 10.1639 13.9511 9.54835 14.3744L0.684453 20.4702C0.0689071 20.8935 0.117988 21.8177 0.774903 22.1735L7.14294 25.622C7.47292 25.8007 7.87517 25.7796 8.18465 25.5674L26.1324 13.2608Z" fill="#224586"/>
</svg>
